<?xml version="1.0" encoding="UTF-8" standalone="no"?>
<!-- Generator: Adobe Illustrator 15.1.0, SVG Export Plug-In . SVG Version: 6.00 Build 0)  -->

<svg
   xmlns:dc="http://purl.org/dc/elements/1.1/"
   xmlns:cc="http://creativecommons.org/ns#"
   xmlns:rdf="http://www.w3.org/1999/02/22-rdf-syntax-ns#"
   xmlns:svg="http://www.w3.org/2000/svg"
   xmlns="http://www.w3.org/2000/svg"
   xmlns:sodipodi="http://sodipodi.sourceforge.net/DTD/sodipodi-0.dtd"
   xmlns:inkscape="http://www.inkscape.org/namespaces/inkscape"
   version="1.1"
   id="Layer_1"
   x="0px"
   y="0px"
   width="750.443px"
   height="193.5px"
   viewBox="0 0 750.443 193.5"
   enable-background="new 0 0 750.443 193.5"
   xml:space="preserve"
   sodipodi:docname="Braess_paradox_road_example-with-neq.svg"
   inkscape:version="0.92.2 (5c3e80d, 2017-08-06)"><metadata
     id="metadata140"><rdf:RDF><cc:Work
         rdf:about=""><dc:format>image/svg+xml</dc:format><dc:type
           rdf:resource="http://purl.org/dc/dcmitype/StillImage" /><dc:title></dc:title></cc:Work></rdf:RDF></metadata><defs
     id="defs138"><marker
       inkscape:stockid="Arrow1Lstart"
       orient="auto"
       refY="0.0"
       refX="0.0"
       id="Arrow1Lstart"
       style="overflow:visible"
       inkscape:isstock="true"><path
         id="path4710"
         d="M 0.0,0.0 L 5.0,-5.0 L -12.5,0.0 L 5.0,5.0 L 0.0,0.0 z "
         style="fill-rule:evenodd;stroke:#000000;stroke-width:1.0pt"
         transform="scale(0.8) translate(12.5,0)" /></marker></defs><sodipodi:namedview
     pagecolor="#ffffff"
     bordercolor="#666666"
     borderopacity="1"
     objecttolerance="10"
     gridtolerance="10"
     guidetolerance="10"
     inkscape:pageopacity="0"
     inkscape:pageshadow="2"
     inkscape:window-width="1550"
     inkscape:window-height="851"
     id="namedview136"
     showgrid="false"
     inkscape:zoom="1.8101934"
     inkscape:cx="264.18363"
     inkscape:cy="164.7812"
     inkscape:window-x="0"
     inkscape:window-y="27"
     inkscape:window-maximized="0"
     inkscape:current-layer="g109"
     showguides="false" /><filter
     id="AI_GaussianBlur_4"><feGaussianBlur
       stdDeviation="4"
       id="feGaussianBlur2" /></filter><g
     filter="url(#AI_GaussianBlur_4)"
     id="g11"><line
       fill="none"
       stroke="#A0A0A0"
       stroke-width="5"
       x1="165"
       y1="94.703"
       x2="334.791"
       y2="36.766"
       id="line5" /><g
       id="g9"><path
         fill="#A0A0A0"
         d="M331.393,37.925l-6.475-5.403l0.18-0.235l12.628,0.624c4.165-0.471,8.331-0.94,12.496-1.41    c-3.583,2.176-7.167,4.349-10.75,6.524l-9.614,8.211l-0.272-0.035L331.393,37.925z"
         id="path7" /></g></g><g
     filter="url(#AI_GaussianBlur_4)"
     id="g19"><line
       fill="none"
       stroke="#A0A0A0"
       stroke-width="5"
       x1="165"
       y1="94.703"
       x2="334.938"
       y2="157.823"
       id="line13" /><g
       id="g17"><path
         fill="#A0A0A0"
         d="M331.572,156.573l-1.6-8.28l0.288-0.068l9.389,8.467c3.524,2.27,7.048,4.539,10.572,6.809    c-4.152-0.579-8.302-1.163-12.454-1.742l-12.639,0.283l-0.188-0.199L331.572,156.573z"
         id="path15" /></g></g><g
     filter="url(#AI_GaussianBlur_4)"
     id="g27"><line
       fill="none"
       stroke="#A0A0A0"
       stroke-width="5"
       x1="400.222"
       y1="31.5"
       x2="570.013"
       y2="89.438"
       id="line21" /><g
       id="g25"><path
         fill="#A0A0A0"
         d="M566.615,88.278l-1.821-8.234l0.286-0.076l9.612,8.213c3.584,2.174,7.167,4.349,10.751,6.522    c-4.166-0.468-8.33-0.939-12.496-1.408l-12.627,0.622l-0.194-0.194L566.615,88.278z"
         id="path23" /></g></g><g
     filter="url(#AI_GaussianBlur_4)"
     id="g35"><line
       fill="none"
       stroke="#A0A0A0"
       stroke-width="5"
       x1="400.222"
       y1="163.5"
       x2="570.159"
       y2="100.38"
       id="line29" /><g
       id="g33"><path
         fill="#A0A0A0"
         d="M566.794,101.63l-6.617-5.228l0.173-0.24l12.641,0.285c4.151-0.581,8.302-1.163,12.453-1.744    c-3.523,2.271-7.048,4.539-10.571,6.811l-9.391,8.465l-0.272-0.027L566.794,101.63z"
         id="path31" /></g></g><g
     filter="url(#AI_GaussianBlur_4)"
     id="g43"><line
       fill="none"
       stroke="#A0A0A0"
       stroke-width="5"
       stroke-dasharray="10,10"
       x1="375.222"
       y1="56.5"
       x2="375.222"
       y2="122.195"
       id="line37" /><g
       id="g41"><path
         fill="#A0A0A0"
         d="M375.222,118.605l7.205-4.383l0.164,0.246l-4.668,11.75c-0.9,4.094-1.801,8.188-2.701,12.281    c-0.902-4.094-1.801-8.188-2.703-12.281l-4.666-11.75l0.121-0.246L375.222,118.605z"
         id="path39" /></g></g><g
     filter="url(#AI_GaussianBlur_4)"
     id="g47"><path
       fill="#A0A0A0"
       d="M165,110.748c0,4.945-4.712,8.955-10.526,8.955H25.526c-5.813,0-10.526-4.01-10.526-8.955v-32.09   c0-4.945,4.713-8.955,10.526-8.955h128.947c5.814,0,10.526,4.01,10.526,8.955V110.748z"
       id="path45" /></g><g
     filter="url(#AI_GaussianBlur_4)"
     id="g51"><path
       fill="#A0A0A0"
       d="M735.443,110.748c0,4.945-4.713,8.955-10.526,8.955H595.97c-5.813,0-10.526-4.01-10.526-8.955v-32.09   c0-4.945,4.713-8.955,10.526-8.955h128.947c5.813,0,10.526,4.01,10.526,8.955V110.748z"
       id="path49" /></g><g
     filter="url(#AI_GaussianBlur_4)"
     id="g55"><circle
       fill="#A0A0A0"
       cx="375.222"
       cy="163.5"
       r="25"
       id="circle53" /></g><g
     filter="url(#AI_GaussianBlur_4)"
     id="g59"><circle
       fill="#A0A0A0"
       cx="375.222"
       cy="31.5"
       r="25"
       id="circle57" /></g><g
     id="g69"><g
       id="g67"><line
         fill="none"
         stroke="#231F20"
         stroke-width="5"
         x1="159"
         y1="88.703"
         x2="328.791"
         y2="30.766"
         id="line61" /><g
         id="g65"><path
           fill="#231F20"
           d="M325.393,31.925l-6.475-5.403l0.18-0.235l12.628,0.623c4.165-0.47,8.331-0.94,12.496-1.41     c-3.583,2.176-7.167,4.349-10.75,6.524l-9.614,8.211l-0.272-0.035L325.393,31.925z"
           id="path63" /></g></g></g><g
     id="g79"><g
       id="g77"><line
         fill="none"
         stroke="#231F20"
         stroke-width="5"
         x1="159"
         y1="88.703"
         x2="328.938"
         y2="151.823"
         id="line71" /><g
         id="g75"><path
           fill="#231F20"
           d="M325.572,150.573l-1.6-8.28l0.288-0.068l9.389,8.467c3.524,2.27,7.048,4.539,10.572,6.809     c-4.152-0.579-8.302-1.163-12.454-1.742l-12.639,0.283l-0.188-0.199L325.572,150.573z"
           id="path73" /></g></g></g><g
     id="g89"><g
       id="g87"><line
         fill="none"
         stroke="#231F20"
         stroke-width="5"
         x1="394.222"
         y1="25.5"
         x2="564.013"
         y2="83.438"
         id="line81" /><g
         id="g85"><path
           fill="#231F20"
           d="M560.615,82.278l-1.821-8.234l0.286-0.076l9.612,8.213c3.584,2.174,7.167,4.349,10.751,6.522     c-4.166-0.468-8.33-0.939-12.496-1.408l-12.627,0.622l-0.194-0.194L560.615,82.278z"
           id="path83" /></g></g></g><g
     id="g99"><g
       id="g97"><line
         fill="none"
         stroke="#231F20"
         stroke-width="5"
         x1="394.222"
         y1="157.5"
         x2="564.159"
         y2="94.38"
         id="line91" /><g
         id="g95"><path
           fill="#231F20"
           d="M560.794,95.63l-6.617-5.228l0.173-0.24l12.641,0.285c4.151-0.581,8.302-1.163,12.453-1.744     c-3.523,2.271-7.048,4.539-10.571,6.811l-9.391,8.465l-0.272-0.027L560.794,95.63z"
           id="path93" /></g></g></g><g
     id="g109"><g
       id="g107"><line
         fill="none"
         stroke="#231F20"
         stroke-width="5"
         stroke-dasharray="10,10"
         x1="369.222"
         y1="50.5"
         x2="369.222"
         y2="116.195"
         id="line101" /><g
         id="g105"><path
           fill="#231F20"
           d="M369.222,112.605l7.205-4.383l0.164,0.246l-4.668,11.75c-0.9,4.094-1.801,8.188-2.701,12.281     c-0.902-4.094-1.801-8.188-2.703-12.281l-4.666-11.75l0.121-0.246L369.222,112.605z"
           id="path103" /></g></g></g><path
     fill="#6FBE44"
     stroke="#231F20"
     d="M159,104.748c0,4.945-4.712,8.955-10.526,8.955H19.526c-5.813,0-10.526-4.01-10.526-8.955  v-32.09c0-4.945,4.713-8.955,10.526-8.955h128.947c5.814,0,10.526,4.01,10.526,8.955V104.748z"
     id="path111" /><text
     transform="matrix(1 0 0 1 43.8545 97.7969)"
     font-family="'DejaVuSans'"
     font-size="26"
     id="text113">START</text>
<path
     fill="#71C8F1"
     stroke="#231F20"
     d="M729.443,104.748c0,4.945-4.713,8.955-10.526,8.955H589.97  c-5.813,0-10.526-4.01-10.526-8.955v-32.09c0-4.945,4.713-8.955,10.526-8.955h128.947c5.813,0,10.526,4.01,10.526,8.955V104.748z"
     id="path115" /><text
     transform="matrix(1 0 0 1 626.4941 97.7969)"
     font-family="'DejaVuSans'"
     font-size="26"
     id="text117">END</text>
<circle
     fill="#FFCD33"
     stroke="#231F20"
     cx="369.222"
     cy="157.5"
     r="25"
     id="circle119" /><text
     transform="matrix(1 0 0 1 360.3032 165.5)"
     font-family="'DejaVuSans'"
     font-size="26"
     id="text121">B</text>
<circle
     fill="#FFCD33"
     stroke="#231F20"
     cx="369.222"
     cy="25.5"
     r="25"
     id="circle123" /><text
     transform="matrix(1 0 0 1 360.3286 33.5)"
     font-family="'DejaVuSans'"
     font-size="26"
     id="text125">A</text>
<text
     transform="matrix(1 0 0 1 193.1426 39)"
     font-family="'DejaVuSans'"
     font-size="20"
     id="text127">t=T/100</text>
<text
     transform="matrix(1 0 0 1 208.9824 156.5)"
     font-family="'DejaVuSans'"
     font-size="20"
     id="text129">t=45</text>
<text
     transform="matrix(1 0 0 1 482.4824 39)"
     font-family="'DejaVuSans'"
     font-size="20"
     id="text131">t=45</text>
<text
     transform="matrix(1 0 0 1 466.6426 156.5)"
     font-family="'DejaVuSans'"
     font-size="20"
     id="text133">t=T/100</text>
<text
     xml:space="preserve"
     style="font-style:normal;font-weight:normal;font-size:40px;line-height:1.25;font-family:sans-serif;letter-spacing:0px;word-spacing:0px;fill:#000000;fill-opacity:1;stroke:none"
     x="562.10779"
     y="150.13011"
     id="text3833"><tspan
       sodipodi:role="line"
       id="tspan3831"
       x="562.10779"
       y="185.52074" /></text>
<text
     xml:space="preserve"
     style="font-style:normal;font-weight:normal;font-size:26.66666603px;line-height:1.25;font-family:sans-serif;letter-spacing:0px;word-spacing:0px;fill:#000000;fill-opacity:1;stroke:none"
     x="561.25739"
     y="162.88596"
     id="text3837"><tspan
       sodipodi:role="line"
       id="tspan3835"
       x="561.25739"
       y="186.47971" /></text>
<text
     xml:space="preserve"
     style="font-style:normal;font-variant:normal;font-weight:normal;font-stretch:normal;font-size:26.66666603px;line-height:1.25;font-family:sans-serif;-inkscape-font-specification:sans-serif;letter-spacing:0px;word-spacing:0px;fill:#800000;fill-opacity:1;stroke:none"
     x="561.25739"
     y="155.23245"
     id="text3841"><tspan
       sodipodi:role="line"
       id="tspan3839"
       x="561.25739"
       y="155.23245">= 40</tspan></text>
<text
     xml:space="preserve"
     style="font-style:normal;font-weight:normal;font-size:26.66666603px;line-height:1.25;font-family:sans-serif;letter-spacing:0px;word-spacing:0px;fill:#000000;fill-opacity:1;stroke:none"
     x="140.31435"
     y="43.831367"
     id="text3845"><tspan
       sodipodi:role="line"
       id="tspan3843"
       x="140.31435"
       y="67.425117" /></text>
<text
     xml:space="preserve"
     style="font-style:normal;font-weight:normal;font-size:26.66666603px;line-height:1.25;font-family:sans-serif;letter-spacing:0px;word-spacing:0px;fill:#800000;fill-opacity:1;stroke:none"
     x="130.96005"
     y="42.130589"
     id="text3849"><tspan
       sodipodi:role="line"
       id="tspan3847"
       x="130.96005"
       y="42.130589">40=</tspan></text>
<text
     xml:space="preserve"
     style="font-style:normal;font-weight:normal;font-size:26.66666603px;line-height:1.25;font-family:sans-serif;letter-spacing:0px;word-spacing:0px;fill:#000000;fill-opacity:1;stroke:none"
     x="376.72275"
     y="86.350868"
     id="text3872"><tspan
       sodipodi:role="line"
       id="tspan3870"
       x="376.72275"
       y="86.350868"> t=~0</tspan></text>
</svg>